<svg id="Calque_1" data-name="Calque 1" xmlns="http://www.w3.org/2000/svg" viewBox="63.75 63.78 566.88 95.08"><defs><style>.cls-1{fill:#e40521}</style></defs><path class="cls-1" d="M111.61 91.91c0-13-8.6-21.14-22.39-21.14H63.78v63.87h12.9V114h10.08l12.58 20.69h15.23l-14.82-23.32c7.83-3.92 11.86-10.47 11.86-19.46zm-23.47 10.66H76.68V82.15h11.46c6.54 0 10.22 3.67 10.22 10s-3.86 10.42-10.22 10.42z"/><path class="cls-1" d="M136.69 124.34c-6.59 0-10.55-3.9-11.5-10.59 2.81 2 6.73 2.88 12.22 2.88 12.63 0 17.65-3.94 17.65-11.46 0-10.13-9.23-17.83-20.6-17.83-12.9 0-22.49 10-22.49 24.1s9.59 24 23.92 24c7.88 0 15.14-2.95 19.26-7.88l-7.08-8.42a14.45 14.45 0 01-11.38 5.2zm-2.5-26.07c5.22 0 8.2 3.57 8.54 9.58H125.1c.7-6.28 4.01-9.58 9.09-9.58zm60.19-5.2a19.24 19.24 0 00-14.24-5.73c-12.9 0-22.22 9.85-22.22 23.92s9.5 24.18 22.58 24.18a17.46 17.46 0 0014.51-6.8v6h11.91V70.77h-12.54zm-11.64 31.09c-7.08 0-11.83-5.11-11.83-12.63s4.93-13 11.92-13 12.27 5.64 12.27 13-5.29 12.63-12.36 12.63zm54.1-53.39h-12.9v63.87h36.01v-11.38h-23.11V70.77zm48.01 53.57c-6.59 0-10.55-3.9-11.5-10.59 2.81 2 6.73 2.88 12.22 2.88 12.63 0 17.65-3.94 17.65-11.46 0-10.13-9.23-17.83-20.61-17.83-12.89 0-22.48 10-22.48 24.1s9.59 24 23.92 24c7.88 0 15.14-2.95 19.26-7.88l-7.08-8.42a14.45 14.45 0 01-11.38 5.2zm-2.5-26.07c5.22 0 8.2 3.57 8.54 9.58h-17.63c.74-6.28 4.01-9.58 9.09-9.58zM393 124.34c-6.59 0-10.56-3.9-11.5-10.59 2.8 2 6.73 2.88 12.22 2.88 12.63 0 17.65-3.94 17.65-11.46 0-10.13-9.23-17.83-20.61-17.83-12.9 0-22.48 10-22.48 24.1a27.21 27.21 0 001.36 8.58 10.71 10.71 0 01-8.26 4.14c-5.28 0-8.24-3.85-8.24-10.21V98.72h11.74v-10.3h-11.77V74.26h-12.72v14.16h-5.55v10.3h5.55v16.12c0 .58 0 1.14.06 1.7-2.29 4.86-6.12 7.62-10.45 7.62-5.28 0-8.24-3.85-8.24-10.21V98.72h10.39v-10.3h-10.39V74.26H309v14.16h-5.55v10.3H309v16.12c0 12.18 7 20.6 18.18 20.6 6.9 0 13.18-3.24 16-8.72 3 5.44 8.38 8.72 15.38 8.72 6.45 0 12.37-2.84 15.39-7.69 4.21 4.82 10.51 7.69 18.2 7.69 7.88 0 15.14-2.95 19.26-7.88l-7.08-8.42a14.45 14.45 0 01-11.33 5.2zm-2.51-26.07c5.23 0 8.21 3.57 8.55 9.58h-17.66c.7-6.28 4.01-9.58 9.08-9.58zm36.79-2.51v-7.34h-12.72v46.22h12.72v-21.59c0-7.53 4.84-12.27 12-12.27a19.31 19.31 0 013.14.27V87.34h-1c-5.42 0-10.65 2.96-14.14 8.42zm191.16-7.34c-8.51 0-21 6.14-21 15.85 0 10.18 13.25 11.55 13.25 17.51 0 3.39-2.59 5.68-6.54 5.68-8.42 0-6.89-5.87-11.55-5.87a4.37 4.37 0 00-4.57 4.68c0 5.31 7.44 9.16 15.14 9.16 9.76 0 19.17-5.4 19.17-11.91 0-7.7-13.44-10.91-13.44-17.87 0-4.59 5.2-9.72 10-9.72 2.06 0 2.69.92 2.69 2.75 0 2.75-1.61 3.21-1.61 4.58 0 2.2 3.58 4.59 5.64 4.59 3 0 5-6.42 5-10 .09-6.23-6-9.43-12.18-9.43zm-19.98 6.88c1.26-4.12-10.93-11.1-10.93-5.28a15.05 15.05 0 01-2.86 8c-2.15 3.05-14.78 20.16-20 27.14C563.71 113 572 97 572 93.78c0-4-12-7.7-12-4a25.15 25.15 0 01-1.07 8.33c-.79 2.73-2.25 7.61-3.43 13.21a44.33 44.33 0 00-3.65 4.26c-3.4 4.3-6.54 8.33-10.12 8.33a2.85 2.85 0 01-3-3.14c0-5.46 10-20.06 10-22.48 0-3.67-5.29-8.24-7.62-5.29-.89 1.17-1.7 2.06-2.59 3.14-2-4.66-4.66-7.52-10-7.52-8.84 0-21.75 11.28-26.79 25.06-.54.65-1.07 1.32-1.51 1.9-3.41 4.3-6.63 8.33-10.22 8.33a2.57 2.57 0 01-2.86-2.69c0-5.37 8.78-19.53 16.3-31.44 8.33-13.17 9.32-15.32 9.32-17.74 0-5.91-5.65-8.24-9.5-8.24-1.61 0-2.64.53-2.78 1.79-.62 5.84-1.61 12-13.25 30.56-.72-4.57-4.39-7.53-9.68-7.53-12.45 0-29.65 19.88-29.65 35.56 0 8.33 4.93 11.1 9.77 11.1 9.67 0 18.63-11.1 19.61-12.45a23.44 23.44 0 00-.8 5.47c0 4.66 2.42 7.16 6.72 7.16 5.34 0 11.45-4 16.41-10 .17 6.82 5.08 9.85 10 9.85 9.77 0 18.1-10.66 19.44-12.45a22.88 22.88 0 00-.81 5.47c0 3.4 1.26 7.16 6.9 7.16 6.72 0 13.87-6.24 18.77-13.63 0 .67-.1 1.33-.14 2-.36 6.63 2.33 10.21 6.45 9.4l-1.79 3c-3 5-8.06 13-8.24 17-.18 4.48 10.39 7.79 11.11 3.76.45-2.77 2.51-7.79 4.3-11.46 8-15.95 15-26.34 26-40.4 3.19-4.3 6.5-8.69 6.86-9.86zm-135.17 30.55c-2.33 0-3.94-1.61-3.94-4.48 0-4.39 3.76-10.66 7.34-15.05 2.51-3.13 8.07-9.23 12.72-9.23 3 0 3.32 2.69 3.32 3.77 0 6.72-11.56 24.99-19.44 24.99zm71.12-24.19c0 5.83-11.55 24.19-19.08 24.19-2.77 0-4.21-1.61-4.21-4.66 0-4.21 3.77-10.48 7.35-14.87 2.24-2.78 8-9.23 12.45-9.23 3.58 0 3.49 2.96 3.49 4.57z"/></svg>