<svg xmlns="http://www.w3.org/2000/svg" width="76.391" height="12.358"><path data-name="Path 1193" d="M4.7.053a3.486 3.486 0 00-2.906 2.114 3.629 3.629 0 00-.1 2.081 4.034 4.034 0 001.064 1.68 10.358 10.358 0 001.481 1.175 4.473 4.473 0 011.2 1.2 1.339 1.339 0 01.037.928 1.488 1.488 0 01-1.039.84 4.748 4.748 0 01-1.385.059 5.7 5.7 0 01-2.21-.947 2.173 2.173 0 00-.35-.225c-.022.022-.494 2.085-.494 2.158a3.989 3.989 0 001.381.788 6 6 0 002.155.383 4.876 4.876 0 002.453-.427 3.5 3.5 0 001.768-1.669 2.8 2.8 0 00.335-1.4 2.605 2.605 0 00-.059-.888 3.485 3.485 0 00-1.053-1.742 8.721 8.721 0 00-1.492-1.212 5.038 5.038 0 01-1.308-1.216 1.312 1.312 0 01-.037-.825 1.08 1.08 0 01.49-.552 2.324 2.324 0 011.149-.2 2.914 2.914 0 01.932.1 5.494 5.494 0 011.672.733.96.96 0 00.184.1 20.8 20.8 0 00.508-2.1A7.733 7.733 0 007.868.422 7.892 7.892 0 006.413.05 7.231 7.231 0 004.7.053z"/><path data-name="Path 1194" d="M12.472 3.257a4.366 4.366 0 00-3.543 4.276 4.435 4.435 0 003.665 4.7 6.68 6.68 0 001.61.018 5.211 5.211 0 001.864-.626l.3-.173.232-1.249c.125-.685.225-1.256.221-1.274s-.092.033-.192.107a9.93 9.93 0 01-1.389.792 3.061 3.061 0 01-1.5.343 2.65 2.65 0 01-.773-.063 2.345 2.345 0 01-.877-.442l-.122-.125 2.619-1.54c2.582-1.521 2.615-1.543 2.615-1.658a2.343 2.343 0 00-.074-.405 3.963 3.963 0 00-3.057-2.685 5.808 5.808 0 00-1.599.004zm1.227 2.022a1.651 1.651 0 01.8.435c.114.136.118.151.059.192-.033.026-.81.486-1.727 1.02-1.518.891-1.665.972-1.683.9a3.1 3.1 0 01.033-.924 2.107 2.107 0 012.517-1.623z"/><path data-name="Path 1195" d="M21.308 3.258a4.477 4.477 0 00-1.68.681 4.556 4.556 0 00-1.783 2.777 7.522 7.522 0 00-.059 1.761 4.4 4.4 0 002.744 3.506 3.727 3.727 0 001.569.3 5.067 5.067 0 001.875-.247 5.755 5.755 0 001.186-.575c.033-.037.516-2.519.494-2.545a4.881 4.881 0 00-.42.265 6.458 6.458 0 01-2.192.976 3.924 3.924 0 01-1.293-.055 2.231 2.231 0 01-.81-.405c-.14-.122-.144-.133-.077-.181a175.22 175.22 0 012.622-1.558l2.552-1.5-.022-.166a3.171 3.171 0 00-.928-1.834 4.122 4.122 0 00-1.956-1.153 6.007 6.007 0 00-1.822-.047zm1.109 2a1.513 1.513 0 01.818.394c.2.192.206.2.136.254-.122.1-3.33 1.971-3.37 1.971a3.056 3.056 0 01.018-1.05 2.151 2.151 0 011.551-1.543 2.193 2.193 0 01.846-.026z"/><path data-name="Path 1196" d="M42.8 3.497c-2.177.162-3.621 1.93-3.613 4.431a4.336 4.336 0 001.79 3.8 4.016 4.016 0 004.328 0 4.554 4.554 0 00.77-.8 4.6 4.6 0 00.652-1.783l.026-.2h-.818l-.026.136a3.206 3.206 0 01-.958 1.923 2.765 2.765 0 01-1.028.571 3.322 3.322 0 01-2.324-.313 3.583 3.583 0 01-.924-.888 4.857 4.857 0 01-.206-4.538 2.867 2.867 0 011.989-1.576 3.63 3.63 0 011.6.052 2.537 2.537 0 011.5 1.249 3.353 3.353 0 01.2.494l.044.184.416.011.416.011-.026-.177a3.049 3.049 0 00-1.621-2.173 3.969 3.969 0 00-2.187-.414z"/><path data-name="Path 1197" d="M72.542 3.493a2.919 2.919 0 00-1.831.737 2.1 2.1 0 00-.7 1.676 1.71 1.71 0 00.534 1.37c.387.376.718.5 2.453.932.652.162 1.307.339 1.455.4a1.411 1.411 0 011.09 1.573 1.44 1.44 0 01-.092.361 2.25 2.25 0 01-1.816 1.1 5.007 5.007 0 01-1.477-.1 2.054 2.054 0 01-1.381-1.024 2.7 2.7 0 01-.239-.991v-.136h-.821l.022.394a2.424 2.424 0 00.269 1.1 3.119 3.119 0 002.921 1.466 4.689 4.689 0 002.206-.39 2.285 2.285 0 001.208-2.541 2.237 2.237 0 00-1.68-1.591c-.151-.052-.847-.236-1.547-.413s-1.378-.357-1.51-.413a1.342 1.342 0 01-.446-.306 1.029 1.029 0 01-.32-.954 1.323 1.323 0 01.394-.972 1.68 1.68 0 01.814-.475 2.462 2.462 0 01.884-.085 2.221 2.221 0 01.906.1 2.373 2.373 0 01.921.567 2.08 2.08 0 01.482 1.006l.03.239.42.011.42.011-.026-.287a2.487 2.487 0 00-1.385-2 4.378 4.378 0 00-2.158-.365z"/><path data-name="Path 1198" d="M28.914 4.009v.368h2.947v7.809h.847V4.377h2.947v-.346c0-.28-.011-.35-.059-.368s-1.547-.022-3.37-.022h-3.312z"/><path data-name="Path 1199" d="M37.028 3.662c-.037.018-.048.906-.048 4.273v4.25h.847L37.82 7.92l-.011-4.262-.368-.007a3.186 3.186 0 00-.413.011z"/><path data-name="Path 1200" d="M47.993 7.914v4.273h.81V9.259l.81-.751c.678-.626.822-.74.858-.7s.825 1.024 1.771 2.214l1.728 2.166h.527a1.99 1.99 0 00.512-.029c-.007-.015-.821-1.039-1.808-2.273s-1.871-2.35-1.971-2.471l-.181-.228 1.893-1.742c1.039-.961 1.893-1.757 1.893-1.775a2.657 2.657 0 00-.53-.026h-.538l-.173.158c-.1.088-1.208 1.12-2.475 2.291l-2.3 2.129-.011-2.291-.005-2.29h-.81z"/><path data-name="Path 1201" d="M55.975 3.667c-.015.011-.026 1.934-.026 4.273v4.247h5.967v-.7h-5.12V8.135h4.748v-.7h-2.368c-1.543 0-2.372-.011-2.383-.037s-.007-.707 0-1.529l.007-1.492h5.046v-.736h-2.921c-1.613 0-2.939.011-2.95.026z"/><path data-name="Path 1202" d="M62.851 3.688a1.886 1.886 0 00-.007.361l.011.309 1.466.011 1.462.007v7.809h.847V4.376l1.484-.007 1.481-.011v-.7l-3.363-.011a29.429 29.429 0 00-3.381.041z"/></svg>