<svg id="Group_4737" data-name="Group 4737" xmlns="http://www.w3.org/2000/svg" xmlns:xlink="http://www.w3.org/1999/xlink" width="58.063" height="56.056" viewBox="0 0 58.063 56.056">
  <defs>
    <clipPath id="clip-path">
      <rect id="Rectangle_4461" data-name="Rectangle 4461" width="58.063" height="56.056" fill="none" stroke="#707070" stroke-width="2"/>
    </clipPath>
  </defs>
  <g id="Group_4736" data-name="Group 4736" clip-path="url(#clip-path)">
    <line id="Line_1706" data-name="Line 1706" x1="1.598" y2="1.923" transform="translate(0.648 39.23)" fill="none" stroke="#1d1d1b" stroke-linecap="round" stroke-width="2"/>
    <path id="Path_3400" data-name="Path 3400" d="M89.875,10.778,43.525,55.231a3.358,3.358,0,0,1-4.649-4.848L85.225,5.93a3.358,3.358,0,0,1,4.649,4.848Z" transform="translate(-33.426 -4.416)" fill="none" stroke="#1d1d1b" stroke-linecap="round" stroke-width="2"/>
    <line id="Line_1707" data-name="Line 1707" x1="26.824" y1="8.018" transform="translate(5.834 11.074)" fill="none" stroke="#1d1d1b" stroke-linecap="round" stroke-width="2"/>
    <line id="Line_1708" data-name="Line 1708" x1="19.436" y1="15.338" transform="translate(3.257 14.033)" fill="none" stroke="#1d1d1b" stroke-linecap="round" stroke-width="2"/>
    <line id="Line_1709" data-name="Line 1709" x1="2.577" y2="2.959" transform="translate(3.257 11.074)" fill="none" stroke="#1d1d1b" stroke-linecap="round" stroke-width="2"/>
    <line id="Line_1710" data-name="Line 1710" x2="8.926" y2="26.535" transform="translate(37.974 24.366)" fill="none" stroke="#1d1d1b" stroke-linecap="round" stroke-width="2"/>
    <line id="Line_1711" data-name="Line 1711" x2="15.99" y2="18.904" transform="translate(28.04 34.674)" fill="none" stroke="#1d1d1b" stroke-linecap="round" stroke-width="2"/>
    <line id="Line_1712" data-name="Line 1712" x1="2.87" y2="2.676" transform="translate(44.03 50.901)" fill="none" stroke="#1d1d1b" stroke-linecap="round" stroke-width="2"/>
    <line id="Line_1713" data-name="Line 1713" x1="7.502" y1="1.875" transform="translate(2.246 39.23)" fill="none" stroke="#1d1d1b" stroke-linecap="round" stroke-width="2"/>
    <line id="Line_1714" data-name="Line 1714" x1="4.462" y1="4.479" transform="translate(0.584 41.201)" fill="none" stroke="#1d1d1b" stroke-linecap="round" stroke-width="2"/>
    <line id="Line_1715" data-name="Line 1715" x2="1.446" y2="7.596" transform="translate(15.397 46.328)" fill="none" stroke="#1d1d1b" stroke-linecap="round" stroke-width="2"/>
    <line id="Line_1716" data-name="Line 1716" x2="4.219" y2="4.709" transform="translate(10.562 50.763)" fill="none" stroke="#1d1d1b" stroke-linecap="round" stroke-width="2"/>
    <line id="Line_1717" data-name="Line 1717" x1="2.011" y2="1.487" transform="translate(14.832 53.925)" fill="none" stroke="#1d1d1b" stroke-linecap="round" stroke-width="2"/>
  </g>
</svg>
