<svg id="Group_4728" data-name="Group 4728" xmlns="http://www.w3.org/2000/svg" xmlns:xlink="http://www.w3.org/1999/xlink" width="86.748" height="55.305" viewBox="0 0 86.748 55.305">
  <defs>
    <clipPath id="clip-path">
      <rect id="Rectangle_4457" data-name="Rectangle 4457" width="86.748" height="55.305" fill="none" stroke="#707070" stroke-width="2"/>
    </clipPath>
  </defs>
  <g id="Group_4727" data-name="Group 4727" clip-path="url(#clip-path)">
    <rect id="Rectangle_4456" data-name="Rectangle 4456" width="85.036" height="22.638" rx="11.319" transform="translate(0.856 24.053)" fill="none" stroke="#1d1d1b" stroke-width="2"/>
    <path id="Path_3397" data-name="Path 3397" d="M41.312,28.071V9.221A4.233,4.233,0,0,1,45.533,5h64.6a4.233,4.233,0,0,1,4.221,4.221v18.85" transform="translate(-34.241 -4.144)" fill="none" stroke="#1d1d1b" stroke-width="2"/>
    <path id="Path_3398" data-name="Path 3398" d="M103.309,71.589H78.615a1.177,1.177,0,0,1-1.173-1.173V60.175A1.177,1.177,0,0,1,78.615,59s3.585-1.589,12.347-1.53c10.261.069,12.347,1.53,12.347,1.53a1.177,1.177,0,0,1,1.173,1.173V70.416A1.177,1.177,0,0,1,103.309,71.589Z" transform="translate(-64.188 -47.634)" fill="none" stroke="#1d1d1b" stroke-width="2"/>
    <path id="Path_3399" data-name="Path 3399" d="M300.537,71.568H275.843a1.177,1.177,0,0,1-1.173-1.173V60.154a1.177,1.177,0,0,1,1.173-1.173s2.772-1.5,12.347-1.5c10.816,0,12.347,1.5,12.347,1.5a1.177,1.177,0,0,1,1.173,1.173V70.395A1.177,1.177,0,0,1,300.537,71.568Z" transform="translate(-227.66 -47.641)" fill="none" stroke="#1d1d1b" stroke-width="2"/>
    <line id="Line_1703" data-name="Line 1703" y2="8.614" transform="translate(7.756 46.691)" fill="none" stroke="#1d1d1b" stroke-width="2"/>
    <line id="Line_1704" data-name="Line 1704" y2="8.502" transform="translate(80.111 46.803)" fill="none" stroke="#1d1d1b" stroke-width="2"/>
    <line id="Line_1705" data-name="Line 1705" x2="84.741" transform="translate(1.151 40.529)" fill="none" stroke="#1d1d1b" stroke-width="2"/>
  </g>
</svg>
