<svg xmlns="http://www.w3.org/2000/svg" xmlns:xlink="http://www.w3.org/1999/xlink" width="94.327" height="62.641" viewBox="0 0 94.327 62.641">
  <defs>
    <clipPath id="clip-path">
      <rect id="Rectangle_4465" data-name="Rectangle 4465" width="88.623" height="52.23" rx="6" fill="none" stroke="#707070" stroke-width="2"/>
    </clipPath>
  </defs>
  <g id="Group_4741" data-name="Group 4741" transform="translate(0 10.8) rotate(-7)">
    <g id="Group_4740" data-name="Group 4740" transform="translate(0 0)" clip-path="url(#clip-path)">
      <rect id="Rectangle_4463" data-name="Rectangle 4463" width="86.767" height="50.192" rx="5" transform="translate(0.928 0.928)" fill="none" stroke="#1d1d1b" stroke-width="2"/>
      <line id="Line_1720" data-name="Line 1720" x2="68.314" transform="translate(10.483 31.014)" fill="none" stroke="#1d1d1b" stroke-width="2"/>
      <path id="Rectangle_4464" data-name="Rectangle 4464" d="M5.181,0h0a5.181,5.181,0,0,1,5.181,5.181v0a5.181,5.181,0,0,1-5.181,5.181h0A5.181,5.181,0,0,1,0,5.181v0A5.181,5.181,0,0,1,5.181,0Z" transform="translate(11.264 9.814)" fill="none" stroke="#1d1d1b" stroke-width="2"/>
      <line id="Line_1721" data-name="Line 1721" x2="13.756" transform="translate(10.483 42.231)" fill="none" stroke="#1d1d1b" stroke-width="2"/>
      <line id="Line_1722" data-name="Line 1722" x2="15.361" transform="translate(63.436 42.231)" fill="none" stroke="#1d1d1b" stroke-width="2"/>
    </g>
  </g>
</svg>
