<?xml version="1.0" standalone="no"?>
<!DOCTYPE svg PUBLIC "-//W3C//DTD SVG 20010904//EN"
 "http://www.w3.org/TR/2001/REC-SVG-20010904/DTD/svg10.dtd">
<svg version="1.0" xmlns="http://www.w3.org/2000/svg"
 width="386.000000pt" height="386.000000pt" viewBox="0 0 386.000000 386.000000"
 preserveAspectRatio="xMidYMid meet">
<metadata>
Created by potrace 1.14, written by Peter Selinger 2001-2017
</metadata>
<g transform="translate(0.000000,386.000000) scale(0.100000,-0.100000)"
fill="#000000" stroke="none">
<path d="M1884 3660 c-16 -5 -40 -20 -51 -32 -12 -13 -117 -201 -233 -418
-117 -217 -226 -420 -242 -450 -91 -167 -158 -300 -151 -301 16 -3 1463 -4
1463 -2 0 2 -52 99 -116 215 -64 117 -126 231 -138 253 -12 22 -103 188 -201
368 -111 203 -189 336 -205 347 -32 23 -86 31 -126 20z"/>
<path d="M1038 2302 l-28 -3 0 -910 c0 -500 3 -910 8 -910 4 -1 43 -2 87 -3
l80 -1 0 -238 0 -237 146 0 146 0 1 248 c0 136 1 257 1 269 1 30 27 53 61 53
54 0 59 -20 58 -275 0 -126 1 -245 1 -262 l1 -33 139 0 139 0 0 266 c0 238 2
268 18 285 24 26 69 25 88 -3 14 -19 16 -64 16 -285 l0 -263 139 0 139 0 0
266 c0 239 2 267 18 285 10 11 30 19 48 19 55 0 58 -14 58 -306 l0 -264 141 0
142 0 0 237 0 238 75 0 76 -1 0 913 c0 626 -3 913 -11 914 -32 2 -1765 3
-1787 1z m983 -422 c174 -33 331 -187 366 -360 60 -298 -181 -572 -487 -554
-251 16 -446 242 -427 494 21 276 275 471 548 420z"/>
</g>
</svg>
