<svg width="117" height="116" viewBox="0 0 117 116" fill="none" xmlns="http://www.w3.org/2000/svg">
<path d="M33.2688 84.4797C11.2629 84.0868 4.36667 69.9318 4.36667 63.232V21.4101C4.36667 14.7126 9.78014 9.28027 16.4596 9.28027H50.0804C56.7575 9.28027 62.1733 14.7103 62.1733 21.4101V63.232C62.1733 69.9295 54.7339 84.8632 33.2712 84.4797H33.2688Z" stroke="#E0001B" stroke-width="2" stroke-miterlimit="10"/>
<path d="M18.0485 62.8619C20.5972 56.9322 26.4777 52.7803 33.3247 52.7803C41.7306 52.7803 48.6798 59.0362 49.795 67.1607C49.8601 67.636 49.27 67.8946 48.9633 67.5242C46.4145 64.4743 40.3598 62.3284 33.2945 62.3284C25.5995 62.3284 19.101 64.875 17.0286 68.3629C16.9449 68.5051 16.7288 68.4375 16.7405 68.2721C16.8729 66.3615 17.1774 64.9002 17.9 63.2203L18.0485 62.8619Z" stroke="#E0001B" stroke-width="2" stroke-miterlimit="10"/>
<path d="M22.3467 38.6665C25.3364 38.6665 27.76 36.2429 27.76 33.2532C27.76 30.2635 25.3364 27.8398 22.3467 27.8398C19.357 27.8398 16.9333 30.2635 16.9333 33.2532C16.9333 36.2429 19.357 38.6665 22.3467 38.6665Z" stroke="#E0001B" stroke-width="2" stroke-miterlimit="10"/>
<path d="M43.9033 38.6665C46.8397 38.6665 49.22 36.2429 49.22 33.2532C49.22 30.2635 46.8397 27.8398 43.9033 27.8398C40.967 27.8398 38.5867 30.2635 38.5867 33.2532C38.5867 36.2429 40.967 38.6665 43.9033 38.6665Z" stroke="#E0001B" stroke-width="2" stroke-miterlimit="10"/>
<path d="M62.2105 32.4653C63.6583 31.8542 65.2484 31.5137 66.9177 31.5137H100.54C107.217 31.5137 112.633 36.9297 112.633 43.6123V85.3267C112.633 92.007 105.194 106.902 83.73 106.52C61.7232 106.128 54.8267 92.0093 54.8267 85.3267V77.4125" stroke="#E0001B" stroke-width="2" stroke-miterlimit="10"/>
<path d="M68.3387 83.3197C67.585 81.58 67.1192 79.6869 67.0069 77.7007C66.9999 77.5868 67.152 77.5472 67.2082 77.6472C69.1766 81.2219 75.8143 83.8499 83.6972 83.8499C91.5801 83.8499 98.2858 81.194 100.217 77.5938C100.28 77.4751 100.46 77.5263 100.453 77.6612C99.971 86.4245 92.6685 93.3807 83.73 93.3807C76.8325 93.3807 70.9086 89.2363 68.341 83.3173L68.3387 83.3197Z" stroke="#E0001B" stroke-width="2" stroke-miterlimit="10"/>
<path d="M72.3233 60.1274C75.2596 60.1274 77.64 57.7038 77.64 54.7141C77.64 51.7244 75.2596 49.3008 72.3233 49.3008C69.387 49.3008 67.0067 51.7244 67.0067 54.7141C67.0067 57.7038 69.387 60.1274 72.3233 60.1274Z" stroke="#E0001B" stroke-width="2" stroke-miterlimit="10"/>
<path d="M93.7833 60.1274C96.7197 60.1274 99.1 57.7038 99.1 54.7141C99.1 51.7244 96.7197 49.3008 93.7833 49.3008C90.847 49.3008 88.4667 51.7244 88.4667 54.7141C88.4667 57.7038 90.847 60.1274 93.7833 60.1274Z" stroke="#E0001B" stroke-width="2" stroke-miterlimit="10"/>
</svg>
