<svg width="143" height="143" viewBox="0 0 143 143" fill="none" xmlns="http://www.w3.org/2000/svg">
<path d="M52.3894 46.7134V91.7426" stroke="#E0001B" stroke-width="2" stroke-linecap="round" stroke-linejoin="round"/>
<path d="M56.7821 51.9722V56.1711C56.7821 56.2896 56.6852 56.3865 56.5667 56.3865H48.2119C48.0934 56.3865 47.9965 56.2896 47.9965 56.1711V51.9722" stroke="#E0001B" stroke-width="2" stroke-linecap="round" stroke-linejoin="round"/>
<path d="M59.0811 91.7427H45.6807C45.5617 91.7427 45.4653 91.8391 45.4653 91.9581V95.9308C45.4653 96.0498 45.5617 96.1463 45.6807 96.1463H59.0811C59.2001 96.1463 59.2965 96.0498 59.2965 95.9308V91.9581C59.2965 91.8391 59.2001 91.7427 59.0811 91.7427Z" stroke="#E0001B" stroke-width="2" stroke-linecap="round" stroke-linejoin="round"/>
<path d="M17.6367 89.5453H52.3269C52.3614 89.5453 52.4131 89.5302 52.4411 89.513L68.6142 79.4282" stroke="#E0001B" stroke-width="2" stroke-linecap="round" stroke-linejoin="round"/>
<path d="M90.6106 46.7134V91.7426" stroke="#E0001B" stroke-width="2" stroke-linecap="round" stroke-linejoin="round"/>
<path d="M86.2177 51.9722V56.1711C86.2177 56.2896 86.3146 56.3865 86.4331 56.3865H94.7879C94.9064 56.3865 95.0033 56.2896 95.0033 56.1711V51.9722" stroke="#E0001B" stroke-width="2" stroke-linecap="round" stroke-linejoin="round"/>
<path d="M97.3215 91.7427H83.9211C83.8022 91.7427 83.7057 91.8391 83.7057 91.9581V95.9308C83.7057 96.0498 83.8022 96.1463 83.9211 96.1463H97.3215C97.4405 96.1463 97.537 96.0498 97.537 95.9308V91.9581C97.537 91.8391 97.4405 91.7427 97.3215 91.7427Z" stroke="#E0001B" stroke-width="2" stroke-linecap="round" stroke-linejoin="round"/>
<path d="M125.363 77.3489C103.339 77.3489 91.6211 62.7765 90.6688 61.542C90.6343 61.4968 90.5568 61.458 90.4986 61.458H52.5014C52.4432 61.458 52.3678 61.4946 52.3312 61.542C51.3789 62.7765 39.659 77.3489 17.6367 77.3489" stroke="#E0001B" stroke-width="2" stroke-linecap="round" stroke-linejoin="round"/>
<path d="M125.363 89.5453H90.6731C90.6386 89.5453 90.5869 89.5302 90.5589 89.513L74.3858 79.4282" stroke="#E0001B" stroke-width="2" stroke-linecap="round" stroke-linejoin="round"/>
<path d="M71.4966 58.0928V61.4601" stroke="#E0001B" stroke-width="2" stroke-linecap="round" stroke-linejoin="round"/>
</svg>
