<svg width="117" height="116" viewBox="0 0 117 116" fill="none" xmlns="http://www.w3.org/2000/svg">
<path d="M80.9618 9.28027C74.6214 9.28027 68.8822 11.8673 64.7769 16.024C60.8077 20.0368 58.3646 25.5114 58.3646 31.5435C58.3646 38.8909 63.1224 47.0065 68.1885 53.573C68.2219 53.6141 68.2553 53.6577 68.2887 53.7014C73.8096 60.8228 79.667 66.0867 80.1294 66.5003L80.9669 67.2453L81.7993 66.4926C82.3105 66.0327 89.4961 59.4689 95.4074 51.0219C99.6438 44.9693 103.225 37.9455 103.225 31.5075C102.873 19.2507 92.8872 9.28027 80.9618 9.28027ZM80.6997 40.9667C75.3741 40.6713 71.2046 36.5326 71.2046 31.5435C71.2046 26.5544 75.5206 22.1229 80.6278 22.1229C81.7402 22.1229 82.8038 22.3078 83.7877 22.6469C84.7973 22.9938 85.7222 23.5076 86.534 24.1524C88.692 25.8634 90.051 28.5146 90.051 31.5435C90.051 36.8254 85.9123 40.9667 80.6997 40.9667Z" stroke="#E0001B" stroke-width="2" stroke-linecap="round" stroke-linejoin="round"/>
<path d="M68.1886 53.5734V91.4717L41.0699 106.334V29.016L64.7769 16.0244C60.8077 20.0372 58.3646 25.5118 58.3646 31.5439C58.3646 38.8914 63.1224 47.0069 68.1886 53.5734Z" stroke="#E0001B" stroke-width="2" stroke-linecap="round" stroke-linejoin="round"/>
<path d="M41.152 29.0158L14.0333 14.1514V91.4689L41.152 106.333V29.0158Z" stroke="#E0001B" stroke-width="2" stroke-linecap="round" stroke-linejoin="round"/>
<path d="M95.4074 51.0225V106.334L68.2888 91.4719V53.702C73.8096 60.8233 79.667 66.0873 80.1294 66.5009L80.9669 67.2459L81.7993 66.4932C82.3105 66.0333 89.4961 59.4694 95.4074 51.0225Z" stroke="#E0001B" stroke-width="2" stroke-linecap="round" stroke-linejoin="round"/>
</svg>
